<svg width="20" height="15" viewBox="0 0 20 15" fill="none" xmlns="http://www.w3.org/2000/svg">
<path d="M17.5 0H7.50002C6.23402 0 4.66602 0.807 3.93002 1.837L1.32002 5.49L0.121025 7.169C2.4952e-05 7.344 -0.000975028 7.661 0.124025 7.833L1.31202 9.497L3.93103 13.164C4.66603 14.193 6.23302 15 7.50002 15H17.5C18.879 15 20 13.878 20 12.5V2.5C20 1.122 18.879 0 17.5 0ZM15.207 9.793C15.2999 9.88584 15.3735 9.99607 15.4238 10.1174C15.474 10.2387 15.4999 10.3687 15.4999 10.5C15.4999 10.6313 15.474 10.7613 15.4238 10.8826C15.3735 11.0039 15.2999 11.1142 15.207 11.207C15.1142 11.2998 15.004 11.3735 14.8827 11.4237C14.7613 11.474 14.6313 11.4998 14.5 11.4998C14.3687 11.4998 14.2387 11.474 14.1174 11.4237C13.9961 11.3735 13.8859 11.2998 13.793 11.207L11.5 8.914L9.20702 11.207C9.11437 11.3002 9.00421 11.3741 8.88288 11.4246C8.76154 11.4751 8.63143 11.501 8.50002 11.501C8.36862 11.501 8.23851 11.4751 8.11717 11.4246C7.99584 11.3741 7.88568 11.3002 7.79303 11.207C7.70008 11.1142 7.62634 11.004 7.57603 10.8827C7.52572 10.7614 7.49982 10.6313 7.49982 10.5C7.49982 10.3687 7.52572 10.2386 7.57603 10.1173C7.62634 9.99599 7.70008 9.88579 7.79303 9.793L10.086 7.5L7.79303 5.207C7.70018 5.11416 7.62653 5.00393 7.57628 4.88263C7.52604 4.76132 7.50018 4.6313 7.50018 4.5C7.50018 4.3687 7.52604 4.23868 7.57628 4.11737C7.62653 3.99607 7.70018 3.88584 7.79303 3.793C7.88587 3.70016 7.99609 3.62651 8.1174 3.57626C8.23871 3.52601 8.36872 3.50015 8.50002 3.50015C8.63133 3.50015 8.76134 3.52601 8.88265 3.57626C9.00396 3.62651 9.11418 3.70016 9.20702 3.793L11.5 6.086L13.793 3.793C13.8859 3.70016 13.9961 3.62651 14.1174 3.57626C14.2387 3.52601 14.3687 3.50015 14.5 3.50015C14.6313 3.50015 14.7613 3.52601 14.8827 3.57626C15.004 3.62651 15.1142 3.70016 15.207 3.793C15.2999 3.88584 15.3735 3.99607 15.4238 4.11737C15.474 4.23868 15.4999 4.3687 15.4999 4.5C15.4999 4.6313 15.474 4.76132 15.4238 4.88263C15.3735 5.00393 15.2999 5.11416 15.207 5.207L12.914 7.5L15.207 9.793Z" fill="#FE453D"/>
</svg>
