<svg width="14" height="14" viewBox="0 0 14 14" fill="none" xmlns="http://www.w3.org/2000/svg">
<path d="M11.9502 2.05289C11.3018 1.4008 10.5304 0.883624 9.68074 0.53126C8.83106 0.178896 7.91992 -0.00166602 6.99999 1.15834e-05C5.84958 0.000741735 4.71705 0.284635 3.70248 0.826607C2.68792 1.36858 1.82254 2.15194 1.18283 3.10748C0.54311 4.06302 0.148745 5.16132 0.0345787 6.30533C-0.079588 7.44934 0.089958 8.60384 0.528236 9.66682C0.966514 10.7298 1.66003 11.6685 2.54751 12.4001C3.43498 13.1316 4.4891 13.6335 5.61671 13.8612C6.74432 14.089 7.91071 14.0357 9.01282 13.7061C10.1149 13.3764 11.1188 12.7806 11.9358 11.9712C12.5889 11.3211 13.1073 10.5488 13.4615 9.69839C13.8157 8.84798 13.9987 7.93615 14 7.01501C14.0013 6.09388 13.821 5.18152 13.4693 4.33008C13.1176 3.47865 12.6014 2.70484 11.9502 2.05289ZM9.84795 9.50962L9.50639 9.85097L6.99999 7.34135L4.4936 9.84616L4.15203 9.50481L6.65843 7.00001L4.15203 4.4952L4.4936 4.15385L6.99999 6.66347L9.50639 4.15866L9.84795 4.50001L7.34155 7.00001L9.84795 9.50962Z" fill="#9E9DA2"/>
</svg>
