<svg width="16" height="14" viewBox="0 0 16 14" fill="none" xmlns="http://www.w3.org/2000/svg">
<path d="M15.9995 14L6.99951 14C3.13352 14 -0.000492096 10.866 -0.000492096 6.99998L-0.000492096 -1.85966e-05L1.99951 -1.85966e-05C9.7315 -1.85966e-05 15.9995 6.268 15.9995 14V14Z" fill="#FF453B"/>
<path d="M10.2581 7.01167C10.0031 5.865 8.865 5 7.5 5C6.94687 5 6.43125 5.145 5.99625 5.39L6.54375 5.87667C6.83898 5.7396 7.16693 5.66758 7.5 5.66667C8.64 5.66667 9.5625 6.48667 9.5625 7.5V7.66667H10.125C10.7456 7.66667 11.25 8.115 11.25 8.66667C11.25 9.045 11.0119 9.37 10.6631 9.54L11.2069 10.0233C11.685 9.72167 12 9.22833 12 8.66667C12 7.78667 11.2294 7.07333 10.2581 7.01167ZM4.125 5.425L5.15625 6.33833C3.96 6.38333 3 7.25833 3 8.33333C3 9.43833 4.00687 10.3333 5.25 10.3333H9.64688L10.3969 11L10.875 10.5767L4.60313 5L4.125 5.425ZM5.89687 7L8.89688 9.66667H5.25C4.42125 9.66667 3.75 9.07 3.75 8.33333C3.75 7.59667 4.42125 7 5.25 7H5.89687Z" fill="white"/>
</svg>
