<svg width="14" height="14" viewBox="0 0 14 14" fill="none" xmlns="http://www.w3.org/2000/svg">
<path d="M5.4375 0C2.44111 0 0 2.44112 0 5.4375C0 8.43388 2.44111 10.875 5.4375 10.875C6.73363 10.875 7.92514 10.4171 8.86084 9.65625L12.5398 13.3352C12.5916 13.3892 12.6537 13.4323 12.7224 13.462C12.7911 13.4917 12.865 13.5074 12.9399 13.5081C13.0147 13.5089 13.0889 13.4947 13.1582 13.4664C13.2275 13.4381 13.2905 13.3963 13.3434 13.3434C13.3963 13.2905 13.4381 13.2275 13.4664 13.1582C13.4947 13.0889 13.5089 13.0147 13.5081 12.9399C13.5074 12.865 13.4917 12.7911 13.462 12.7224C13.4323 12.6537 13.3892 12.5916 13.3352 12.5398L9.65625 8.86084C10.4171 7.92514 10.875 6.73363 10.875 5.4375C10.875 2.44112 8.43389 0 5.4375 0ZM5.4375 1.125C7.82589 1.125 9.75 3.04911 9.75 5.4375C9.75 6.60098 9.29107 7.65214 8.54663 8.42651C8.50074 8.46024 8.46024 8.50074 8.42651 8.54663C7.65214 9.29107 6.60098 9.75 5.4375 9.75C3.04911 9.75 1.125 7.82589 1.125 5.4375C1.125 3.04911 3.04911 1.125 5.4375 1.125Z" fill="#9E9DA2"/>
</svg>
